<?xml version="1.0" encoding="iso-8859-1"?>
<!-- Generator: Adobe Illustrator 19.0.0, SVG Export Plug-In . SVG Version: 6.00 Build 0)  -->
<svg version="1.1" id="Layer_1" xmlns="http://www.w3.org/2000/svg" xmlns:xlink="http://www.w3.org/1999/xlink" x="0px" y="0px"
	 viewBox="0 0 512.001 512.001" style="enable-background:new 0 0 512.001 512.001;" xml:space="preserve">
<path style="fill:#FFFFFF;" d="M475.561,108.087c0-27.403-22.302-49.698-49.72-49.698c-1.713,0-3.42,0.092-5.118,0.263
	c-8.624-22.519-30.342-37.73-54.967-37.73c-24.623,0-46.341,15.213-54.964,37.73c-1.699-0.171-3.407-0.263-5.12-0.263
	c-27.418,0-49.72,22.296-49.72,49.698H475.561z"/>
<g>
	<polygon style="fill:#1EB415;" points="501.531,420.027 250.276,207.848 10.468,420.027 	"/>
	<polyline style="fill:#1EB415;" points="412.175,344.583 501.551,344.583 306.863,180.17 263.214,218.79 	"/>
</g>
<path d="M508.255,412.044l-67.512-57.013h60.808c4.386,0,8.306-2.74,9.814-6.86c1.508-4.12,0.28-8.743-3.071-11.572L313.604,172.187
	c-3.962-3.346-9.78-3.28-13.666,0.158l-36.882,32.634l-6.055-5.114c-3.962-3.346-9.779-3.28-13.666,0.158l-108.91,96.36
	c-4.323,3.824-4.726,10.427-0.902,14.75c3.823,4.322,10.427,4.727,14.75,0.902l89.863-79.51c-0.522,16.576-0.241,39.6,3.101,64.482
	c3.803,28.313,10.818,53.126,20.848,73.749c7.415,15.246,16.498,28.212,27.137,38.823h-20.336c-5.77,0-10.449,4.678-10.449,10.449
	s4.679,10.449,10.449,10.449h51.417c0.01,0,0.022,0.002,0.033,0.002c0.01,0,0.021-0.002,0.031-0.002h181.143
	c4.386,0,8.306-2.74,9.814-6.86C512.834,419.496,511.606,414.874,508.255,412.044z M307.021,193.981l165.961,140.152h-56.987
	L279.192,218.605L307.021,193.981z M323.144,409.578c-62.573-36.499-65.639-137.456-63.909-180.473l213.709,180.473H323.144z"/>
<path d="M276.539,291.662l79.774,67.368c1.962,1.656,4.355,2.466,6.736,2.466c2.971,0,5.921-1.26,7.989-3.707
	c3.723-4.409,3.167-11.002-1.241-14.725l-79.774-67.368c-4.409-3.723-11.001-3.167-14.726,1.241
	C271.574,281.346,272.129,287.938,276.539,291.662z"/>
<path d="M383.405,381.908l3.785,3.195c1.961,1.655,4.353,2.463,6.733,2.463c2.972,0,5.925-1.261,7.99-3.71
	c3.722-4.411,3.163-11.003-1.247-14.725l-3.778-3.19c-4.407-3.723-11.002-3.168-14.725,1.241
	C378.441,371.592,378.997,378.184,383.405,381.908z"/>
<path d="M98.221,409.578H38.028l9.349-8.272c4.323-3.824,4.726-10.427,0.902-14.75c-3.823-4.321-10.426-4.726-14.749-0.902
	L3.526,412.201c-3.253,2.878-4.386,7.467-2.848,11.527c1.539,4.061,5.428,6.747,9.772,6.747h87.771
	c5.77,0,10.449-4.678,10.449-10.449S103.991,409.578,98.221,409.578z"/>
<path d="M255.951,118.536h219.61c5.77,0,10.449-4.678,10.449-10.449c0-32.659-26.171-59.323-58.652-60.129
	c-11.758-22.695-35.635-37.486-61.603-37.486c-25.967,0-49.842,14.79-61.599,37.486c-32.481,0.806-58.654,27.469-58.654,60.129
	C245.502,113.858,250.18,118.536,255.951,118.536z M305.671,68.837c1.318,0,2.687,0.071,4.071,0.211
	c4.692,0.468,9.121-2.256,10.807-6.66c7.104-18.552,25.271-31.018,45.205-31.018c19.936,0,38.104,12.466,45.21,31.019
	c1.686,4.404,6.096,7.129,10.808,6.659c1.382-0.139,2.751-0.21,4.069-0.21c18.036,0,33.271,12.214,37.859,28.8H267.812
	C272.401,81.052,287.636,68.837,305.671,68.837z"/>
<path d="M230.923,421.053c5.77,0,10.449-4.678,10.449-10.449c0-5.771-4.679-10.449-10.449-10.449
	c-20.742,0-37.616-16.874-37.616-37.616c0-5.771-4.679-10.449-10.449-10.449s-10.449,4.678-10.449,10.449
	c0,20.742-16.874,37.616-37.616,37.616c-5.77,0-10.449,4.678-10.449,10.449c0,5.771,4.679,10.449,10.449,10.449
	c14.314,0,27.437-5.174,37.616-13.74v3.291c0,20.742-16.874,37.616-37.616,37.616c-5.77,0-10.449,4.678-10.449,10.449
	s4.679,10.449,10.449,10.449c14.314,0,27.437-5.174,37.616-13.74v35.701c0,5.771,4.679,10.449,10.449,10.449
	s10.449-4.678,10.449-10.449v-35.701c10.179,8.566,23.302,13.74,37.616,13.74c5.77,0,10.449-4.678,10.449-10.449
	s-4.679-10.449-10.449-10.449c-20.742,0-37.616-16.874-37.616-37.616v-3.291C203.486,415.879,216.609,421.053,230.923,421.053z"/>
<path d="M128.915,331.325c0-5.771-4.679-10.449-10.449-10.449c-20.742,0-37.616-16.874-37.616-37.616v-3.291
	c10.179,8.566,23.302,13.74,37.616,13.74c5.77,0,10.449-4.678,10.449-10.449c0-5.771-4.679-10.449-10.449-10.449
	c-20.742,0-37.616-16.874-37.616-37.616v-3.291c10.179,8.566,23.302,13.74,37.616,13.74c5.77,0,10.449-4.678,10.449-10.449
	s-4.679-10.449-10.449-10.449c-20.742,0-37.616-16.874-37.616-37.616c0-5.771-4.679-10.449-10.449-10.449
	c-5.77,0-10.449,4.678-10.449,10.449c0,20.742-16.874,37.616-37.616,37.616c-5.77,0-10.449,4.678-10.449,10.449
	s4.679,10.449,10.449,10.449c14.314,0,27.437-5.174,37.616-13.74v3.291c0,20.742-16.874,37.616-37.616,37.616
	c-5.77,0-10.449,4.678-10.449,10.449c0,5.771,4.679,10.449,10.449,10.449c14.314,0,27.437-5.174,37.616-13.74v3.291
	c0,20.742-16.874,37.616-37.616,37.616c-5.77,0-10.449,4.678-10.449,10.449s4.679,10.449,10.449,10.449
	c14.314,0,27.437-5.174,37.616-13.74v51.242c0,5.771,4.679,10.449,10.449,10.449s10.449-4.678,10.449-10.449v-51.242
	c10.179,8.566,23.302,13.74,37.616,13.74C124.236,341.774,128.915,337.096,128.915,331.325z"/>
<g>
</g>
<g>
</g>
<g>
</g>
<g>
</g>
<g>
</g>
<g>
</g>
<g>
</g>
<g>
</g>
<g>
</g>
<g>
</g>
<g>
</g>
<g>
</g>
<g>
</g>
<g>
</g>
<g>
</g>
</svg>
